<svg width="88" height="51" viewBox="0 0 88 51" xmlns="http://www.w3.org/2000/svg" xmlns:xlink="http://www.w3.org/1999/xlink"><title>Page 1</title><defs><path id="path-1" d="M16.354 21.378H.148V.115h16.206v21.263z"/></defs><g id="Forside" fill="none" fill-rule="evenodd"><g id="Footer" transform="translate(-999 -154)"><g id="Page-1" transform="translate(999 154)"><path id="Fill-1" fill="#1D1D1B" d="M52.626 0L37.93 25.708l3.018 5.28L55.711 5.059l.043-.076V0z"/><path id="Fill-2" fill="#D8D8D8" d="M52.58 0l2.884 5.059 26.048 45.755.096.169h6.088v-.001L58.548 0z"/><path id="Fill-3" fill="#1D1D1B" d="M21.258 14.652L.486 50.982h6.052L24.386 19.63v-4.978z"/><path id="Fill-4" fill="#D52B1E" d="M21.21 14.652l20.69 36.33h6.052L38.9 35.153l.004-.008L27.18 14.652z"/><g id="Group-7" transform="translate(52.958 29.637)"><mask id="mask-2" fill="#fff"><use xlink:href="#path-1"/></mask><path d="M16.263 18.082a2.32 2.32 0 0 0-.132-.377l-.009-.018a2.29 2.29 0 0 0-.232-.408L6.113.115H.148l11.366 20.052.114.169h.02a2.605 2.605 0 0 0 2.09 1.042 2.6 2.6 0 0 0 2.19-1.191 2.56 2.56 0 0 0 .426-1.425c0-.223-.031-.451-.091-.68" id="Fill-5" fill="#1890A3" mask="url(#mask-2)"/></g></g></g></g></svg>